<mxfile host="65bd71144e">
    <diagram id="11c3qt5qkVUd3guoZM1B" name="Page-1">
        <mxGraphModel dx="1121" dy="533" grid="1" gridSize="10" guides="1" tooltips="1" connect="1" arrows="1" fold="1" page="1" pageScale="1" pageWidth="827" pageHeight="1169" math="0" shadow="0">
            <root>
                <mxCell id="0"/>
                <mxCell id="1" parent="0"/>
                <mxCell id="4" value="" style="edgeStyle=none;html=1;" parent="1" source="2" target="3" edge="1">
                    <mxGeometry relative="1" as="geometry"/>
                </mxCell>
                <mxCell id="2" value="Parent" style="shape=umlActor;verticalLabelPosition=bottom;verticalAlign=top;html=1;outlineConnect=0;" parent="1" vertex="1">
                    <mxGeometry x="60" y="130.5" width="15" height="30" as="geometry"/>
                </mxCell>
                <mxCell id="6" value="" style="edgeStyle=none;html=1;" parent="1" source="3" target="5" edge="1">
                    <mxGeometry relative="1" as="geometry"/>
                </mxCell>
                <mxCell id="3" value="Messages on WhatsApp Bot" style="shape=parallelogram;perimeter=parallelogramPerimeter;whiteSpace=wrap;html=1;fixedSize=1;verticalAlign=top;align=center;" parent="1" vertex="1">
                    <mxGeometry x="140" y="123" width="120" height="45" as="geometry"/>
                </mxCell>
                <mxCell id="9" value="" style="edgeStyle=none;html=1;" edge="1" parent="1" source="5" target="8">
                    <mxGeometry relative="1" as="geometry"/>
                </mxCell>
                <mxCell id="14" value="" style="edgeStyle=none;html=1;" edge="1" parent="1" source="5" target="13">
                    <mxGeometry relative="1" as="geometry"/>
                </mxCell>
                <mxCell id="5" value="" style="verticalLabelPosition=bottom;html=1;verticalAlign=top;align=center;strokeColor=#1D1D1D;fillColor=#FFFFFF;shape=mxgraph.azure.server_rack;" parent="1" vertex="1">
                    <mxGeometry x="310" y="120.5" width="50" height="50" as="geometry"/>
                </mxCell>
                <mxCell id="7" value="WhatsApp Server" style="text;html=1;strokeColor=none;fillColor=none;align=center;verticalAlign=middle;whiteSpace=wrap;rounded=0;" vertex="1" parent="1">
                    <mxGeometry x="305" y="180.5" width="60" height="30" as="geometry"/>
                </mxCell>
                <mxCell id="18" value="" style="edgeStyle=none;html=1;fontSize=10;" edge="1" parent="1" source="8" target="17">
                    <mxGeometry relative="1" as="geometry"/>
                </mxCell>
                <mxCell id="8" value="" style="verticalLabelPosition=bottom;html=1;verticalAlign=top;align=center;strokeColor=#1D1D1D;fillColor=#FFFFFF;shape=mxgraph.azure.server_rack;" vertex="1" parent="1">
                    <mxGeometry x="480" y="120" width="50" height="50" as="geometry"/>
                </mxCell>
                <mxCell id="10" value="Ayra Server" style="text;html=1;strokeColor=none;fillColor=none;align=center;verticalAlign=middle;whiteSpace=wrap;rounded=0;" vertex="1" parent="1">
                    <mxGeometry x="475" y="180.5" width="60" height="30" as="geometry"/>
                </mxCell>
                <mxCell id="13" value="&lt;font style=&quot;font-size: 10px;&quot;&gt;Polls the Ayra API wtih user's message&amp;nbsp; with exponential delay until 200 status code is recieved or maximum retries are exhausted.&lt;/font&gt;" style="rounded=1;whiteSpace=wrap;html=1;verticalAlign=top;fillColor=#18141D;strokeColor=#FFFFFF;shadow=1;" vertex="1" parent="1">
                    <mxGeometry x="252.5" y="30" width="165" height="70" as="geometry"/>
                </mxCell>
                <mxCell id="15" value="&lt;font style=&quot;font-size: 10px;&quot;&gt;/message&lt;/font&gt;" style="text;html=1;strokeColor=none;fillColor=none;align=center;verticalAlign=middle;whiteSpace=wrap;rounded=0;" vertex="1" parent="1">
                    <mxGeometry x="390" y="123" width="60" height="20" as="geometry"/>
                </mxCell>
                <mxCell id="20" value="" style="edgeStyle=none;html=1;fontSize=10;startArrow=none;" edge="1" parent="1" source="21">
                    <mxGeometry relative="1" as="geometry">
                        <mxPoint x="650" y="40" as="targetPoint"/>
                    </mxGeometry>
                </mxCell>
                <mxCell id="25" value="" style="edgeStyle=none;html=1;fontSize=10;startArrow=none;" edge="1" parent="1" source="32" target="24">
                    <mxGeometry relative="1" as="geometry"/>
                </mxCell>
                <mxCell id="17" value="verify if the request is coming from a parent" style="rhombus;whiteSpace=wrap;html=1;shadow=1;strokeColor=#FFFFFF;fontSize=10;fillColor=#18141D;" vertex="1" parent="1">
                    <mxGeometry x="590" y="93.43" width="120" height="103.13" as="geometry"/>
                </mxCell>
                <mxCell id="22" value="" style="edgeStyle=none;html=1;fontSize=10;endArrow=none;" edge="1" parent="1" source="17" target="21">
                    <mxGeometry relative="1" as="geometry">
                        <mxPoint x="650" y="93.43000000000006" as="sourcePoint"/>
                        <mxPoint x="650" y="50" as="targetPoint"/>
                    </mxGeometry>
                </mxCell>
                <mxCell id="21" value="&lt;font style=&quot;font-size: 10px;&quot;&gt;&lt;b&gt;No&lt;/b&gt;&lt;/font&gt;" style="text;html=1;strokeColor=none;fillColor=none;align=center;verticalAlign=middle;whiteSpace=wrap;rounded=0;" vertex="1" parent="1">
                    <mxGeometry x="640" y="60.00000000000001" width="20" height="20" as="geometry"/>
                </mxCell>
                <mxCell id="23" value="&lt;font style=&quot;font-size: 10px;&quot;&gt;Block the request&lt;/font&gt;" style="rounded=1;whiteSpace=wrap;html=1;verticalAlign=top;fillColor=#18141D;strokeColor=#FFFFFF;shadow=1;" vertex="1" parent="1">
                    <mxGeometry x="590" y="10" width="110" height="30" as="geometry"/>
                </mxCell>
                <mxCell id="27" value="" style="edgeStyle=none;html=1;fontSize=10;" edge="1" parent="1" source="24" target="26">
                    <mxGeometry relative="1" as="geometry"/>
                </mxCell>
                <mxCell id="24" value="Send the user's message for classification into predefined set of categories." style="rounded=1;whiteSpace=wrap;html=1;fontSize=10;fillColor=#18141D;strokeColor=#FFFFFF;shadow=1;" vertex="1" parent="1">
                    <mxGeometry x="580" y="255" width="140" height="60" as="geometry"/>
                </mxCell>
                <mxCell id="30" value="" style="edgeStyle=none;html=1;fontSize=10;entryX=1;entryY=0.5;entryDx=0;entryDy=0;" edge="1" parent="1" source="26" target="31">
                    <mxGeometry relative="1" as="geometry">
                        <mxPoint x="390" y="285" as="targetPoint"/>
                    </mxGeometry>
                </mxCell>
                <mxCell id="26" value="" style="verticalLabelPosition=bottom;html=1;verticalAlign=top;align=center;strokeColor=#1D1D1D;fillColor=#FFFFFF;shape=mxgraph.azure.server_rack;" vertex="1" parent="1">
                    <mxGeometry x="457.5" y="260" width="50" height="50" as="geometry"/>
                </mxCell>
                <mxCell id="28" value="Classificaton Model deployed on OpenAI server" style="text;html=1;strokeColor=none;fillColor=none;align=center;verticalAlign=middle;whiteSpace=wrap;rounded=0;" vertex="1" parent="1">
                    <mxGeometry x="422.5" y="325" width="120" height="45" as="geometry"/>
                </mxCell>
                <mxCell id="39" value="" style="edgeStyle=none;html=1;fontSize=10;" edge="1" parent="1" source="31" target="38">
                    <mxGeometry relative="1" as="geometry"/>
                </mxCell>
                <mxCell id="31" value="Initiating a flow of follow-up messages to further understand the query" style="rounded=1;whiteSpace=wrap;html=1;shadow=1;strokeColor=#FFFFFF;fontSize=10;fillColor=#18141D;" vertex="1" parent="1">
                    <mxGeometry x="220" y="257.5" width="110" height="52.5" as="geometry"/>
                </mxCell>
                <mxCell id="33" value="" style="edgeStyle=none;html=1;fontSize=10;endArrow=none;" edge="1" parent="1" source="17" target="32">
                    <mxGeometry relative="1" as="geometry">
                        <mxPoint x="650" y="196.56000000000006" as="sourcePoint"/>
                        <mxPoint x="650" y="255" as="targetPoint"/>
                    </mxGeometry>
                </mxCell>
                <mxCell id="32" value="&lt;font style=&quot;font-size: 10px;&quot;&gt;&lt;b&gt;Yes&lt;/b&gt;&lt;/font&gt;" style="text;html=1;strokeColor=none;fillColor=none;align=left;verticalAlign=middle;whiteSpace=wrap;rounded=0;" vertex="1" parent="1">
                    <mxGeometry x="640" y="210.5" width="20" height="20" as="geometry"/>
                </mxCell>
                <mxCell id="37" value="&lt;span style=&quot;font-size: 10px;&quot;&gt;parent's intent&lt;/span&gt;" style="text;html=1;strokeColor=none;fillColor=none;align=center;verticalAlign=middle;whiteSpace=wrap;rounded=0;" vertex="1" parent="1">
                    <mxGeometry x="350" y="260.5" width="80" height="20" as="geometry"/>
                </mxCell>
                <mxCell id="38" value="Push the message on paren'ts whatsapp" style="whiteSpace=wrap;html=1;fontSize=10;fillColor=#18141D;strokeColor=#FFFFFF;rounded=1;shadow=1;" vertex="1" parent="1">
                    <mxGeometry x="50" y="255" width="120" height="60" as="geometry"/>
                </mxCell>
            </root>
        </mxGraphModel>
    </diagram>
</mxfile>